<svg width="25" height="26" viewBox="0 0 25 26" fill="none" xmlns="http://www.w3.org/2000/svg">
<path fill-rule="evenodd" clip-rule="evenodd" d="M1.5 1.00001L0 2.50001V23.5L1.5 25H8.5L10 23.5V2.50001L8.5 1.00001H1.5ZM2 3.00001H8V5.00001H2V3.00001ZM8 21H2V23H8V21Z" fill="white"/>
<path fill-rule="evenodd" clip-rule="evenodd" d="M10.3402 3.72913L11.4609 1.92799L18.2785 0.34024L20.0796 1.46091L24.8428 21.9136L23.7222 23.7147L16.9046 25.3025L15.1035 24.1818L10.3402 3.72913ZM18.2451 2.40152L12.4015 3.76245L12.8552 5.71033L18.6988 4.3494L18.2451 2.40152ZM16.4843 21.2933L22.3279 19.9324L22.7816 21.8803L16.9379 23.2412L16.4843 21.2933ZM19.1524 6.29727L13.3088 7.6582L13.7624 9.60607L19.6061 8.24514L19.1524 6.29727Z" fill="white"/>
</svg>
